<svg width="203" height="288" viewBox="0 0 203 288" fill="none" xmlns="http://www.w3.org/2000/svg">
<path d="M89.6895 225.454C89.515 227.025 87.2176 229.994 86.2083 231.239C84.7792 233 83.0565 234.921 81.2542 236.3C77.7857 238.952 72.6735 243.319 68.2129 243.744C65.9912 243.956 64.1493 242.505 62.75 240.906C61.5453 239.529 62.2145 239.718 62.2145 242.218C62.2145 247.289 61.2504 252.276 61.2504 257.268C61.2504 261.499 65.9835 266.469 67.9987 270.068C68.331 270.661 70.0662 274.023 68.9627 274.513C66.1569 275.76 62.1345 268.519 61.1701 267.122C59.0711 264.082 59.1061 264.964 59.8311 268.167C60.6999 272.004 61.1238 275.175 59.3223 278.958C58.9266 279.79 58.2011 280.073 57.6353 280.726C56.4833 282.055 55.9523 283.74 54.5557 284.903C52.927 286.261 52.7308 285.254 52.4669 283.672C51.7312 279.257 52.092 274.638 52.092 270.175C52.092 269.029 52.5632 262.578 51.369 266.399C49.8624 271.22 42.8018 276.708 37.8725 278.209C35.4223 278.954 35.0411 277.433 35.2482 275.156C35.5295 272.061 38.4979 268.963 40.5236 266.908C41.1256 266.297 45.0693 262.776 44.1387 263.293C41.23 264.909 35.1533 259.719 33.6146 257.803L33.5832 257.764C32.5145 256.434 31.7673 255.504 33.9895 254.857C37.962 253.702 41.562 256.543 45.0492 257.964C48.2223 259.257 47.6233 258.772 47.861 255.34C48.3736 247.935 50.1022 240.532 52.1724 233.434C52.306 232.976 52.4667 232.712 52.6466 232.597M52.6466 232.597C53.6095 231.981 55.1212 235.65 55.9643 236.812M52.6466 232.597C52.9172 232.952 53.185 233.299 53.4448 233.635L53.5381 233.756C54.1934 234.604 55.0683 235.701 55.9643 236.812M52.6466 232.597C51.0571 230.508 49.3738 228.112 48.6911 225.722C47.7516 222.434 46.3918 230.018 46.0936 230.998C45.2492 233.772 43.5502 235.899 42.5588 238.576C41.4957 241.446 40.2417 239.517 39.2918 237.317C39.192 237.086 38.905 236.156 38.582 235.069M55.9643 236.812C55.9769 236.829 55.9894 236.846 56.0018 236.862C57.2977 238.57 60.0721 241.843 60.0721 241.843C60.0721 241.843 57.9656 239.293 55.9643 236.812ZM38.582 235.069C37.8776 232.699 37.0019 229.582 37.5244 231.346C37.8693 232.51 38.253 233.776 38.582 235.069ZM38.582 235.069C39.9051 240.27 40.3448 245.907 33.8289 247.092C27.2819 248.282 33.9984 235.667 34.2573 233.595C34.4067 232.4 35.6402 229.04 34.0163 231.024C32.9148 232.371 31.9729 233.882 30.4547 234.827C27.1787 236.867 22.3547 236.948 18.8595 235.47C17.2901 234.806 11.6511 230.922 14.0125 228.561C15.1344 227.439 20.5385 228.291 21.8855 228.454C24.1568 228.727 27.275 230.706 29.6246 229.766C29.9144 229.65 28.9234 228.799 28.848 228.721C27.5726 227.4 26.3048 225.91 25.3668 224.33C22.6376 219.73 21.6753 215.857 22.9299 210.699C23.7684 207.252 24.9453 206.32 26.7593 209.521C28.8049 213.131 30.2865 217.719 31.8472 221.598C32.5136 223.255 33.0854 228.264 33.7485 226.606C34.2235 225.419 34.7353 224.049 35.4356 222.937C36.7247 220.89 38.5018 219.282 40.2022 217.581C41.174 216.61 44.1288 212.41 44.4333 214.77C44.7712 217.388 46.4314 219.61 47.0532 222.088M47.0532 222.088C47.1623 222.522 47.2394 222.965 47.2719 223.419C47.2765 223.484 47.1854 222.897 47.0532 222.088ZM47.0532 222.088C46.844 220.807 46.5321 218.969 46.3346 218.278C43.9872 210.062 47.2719 202.601 47.2719 194.444C47.2719 191.725 47.3028 189.185 47.861 186.518C47.9758 185.969 48.2074 183.498 47.7271 185.179C47.4622 186.106 43.7499 195.696 41.4876 194.498C39.8982 193.657 40.3832 188.397 40.5504 186.893C40.7378 185.206 42.4517 183.274 42.4517 181.805C42.4517 180.73 41.3231 183.655 40.5771 184.429C37.9065 187.201 34.4446 192.166 29.9727 191.793C28.3298 191.656 27.3048 189.881 27.6162 188.339C28.503 183.947 32.863 181.073 36.2925 178.698C37.5389 177.836 34.4508 178.131 33.6682 177.949C31.8272 177.519 18.9874 173.053 22.796 168.951C24.9527 166.628 27.6106 167.337 30.0531 168.63C31.8424 169.577 35.485 172.473 37.5244 172.7C37.9066 172.742 37.1604 172.008 37.0959 171.629C36.3819 167.434 35.332 162.639 36.1319 158.4C36.2084 157.995 38.6564 149.357 41.0056 152C43.4172 154.713 43.4163 159.927 43.4157 163.385L43.4157 163.542C43.4157 165.575 44.1937 169.393 43.1747 171.227C42.6141 172.236 41.5895 172.914 43.2282 172.914C44.3248 172.914 45.434 172.857 46.522 173.021C48.4847 173.318 48.9032 174.555 48.8602 176.078M48.8602 176.078C48.8289 177.188 48.5527 178.449 48.4501 179.609C48.4264 179.877 48.422 180.258 48.4298 180.681M48.8602 176.078C48.7394 176.871 48.6137 177.664 48.4769 178.457C48.3439 179.229 48.3649 179.958 48.4298 180.681M48.8602 176.078C49.3768 172.691 49.806 169.312 50.646 165.952C52.5317 158.409 53.1226 150.794 54.2879 143.136C54.848 139.455 55.3762 135.286 56.4302 131.728C56.6074 131.131 57.5663 128.026 56.6177 127.604C51.8698 125.494 47.6428 122.276 43.6299 119.035C42.0749 117.779 40.6217 117.958 38.8633 117.455C38.235 117.276 40.3825 113.879 40.5236 113.519C41.6901 110.538 42.3467 107.246 43.4157 104.2C44.2042 101.953 46.0485 99.9466 46.281 97.505C46.3277 97.015 46.1927 96.6151 45.9557 96.262M48.4298 180.681C48.4594 182.281 48.6644 184.483 48.6644 183.465C48.6644 182.499 48.5119 181.595 48.4298 180.681ZM45.9557 96.262C45.9257 96.2173 45.8941 96.1734 45.861 96.1301M45.9557 96.262C46.3024 95.7928 46.7043 95.2232 46.7898 95.0949C47.4713 94.0726 48.2494 93.1198 48.9321 92.0957C48.9737 92.0334 49.015 91.9716 49.0562 91.9103M45.9557 96.262C45.5075 96.8686 45.1518 97.3072 45.6919 96.4071C45.7476 96.3143 45.804 96.222 45.861 96.1301M45.861 96.1301C45.2055 95.2728 43.9723 94.6741 43.4157 93.6488C42.14 91.2988 40.989 88.9389 39.5863 86.6596C37.8157 83.7823 35.7185 81.9649 33.2025 79.7844L33.1326 79.7239C32.6334 79.2912 28.493 74.4942 27.9911 74.6894C25.9768 75.4728 23.6731 75.6601 21.5642 76.0819C18.6789 76.659 14.6437 78.4098 11.6024 77.9029C7.68029 77.2492 12.6077 72.7494 13.7983 72.0116C16.4305 70.3803 20.0341 69.1241 23.0834 68.4749M45.861 96.1301C46.7896 94.6356 47.9012 93.2581 49.0562 91.9103M23.0834 68.4749C23.1665 68.4572 23.2493 68.44 23.3316 68.4232C24.3638 68.2125 27.7492 67.9964 24.8044 68.3428C24.2061 68.4132 23.6341 68.457 23.0834 68.4749ZM23.0834 68.4749C19.1054 68.6046 16.2343 67.389 12.5129 65.1562C9.72639 63.4843 4.63051 60.9569 3.00643 57.9794C2.11317 56.3418 9.84375 56.8183 10.6384 56.9886C12.4597 57.3789 14.1896 58.0225 15.9942 58.4615C17.7114 58.8792 19.8829 58.6354 21.3499 59.7468C21.9194 60.1782 24.3611 61.4741 23.6529 59.8807C23.0155 58.4464 20.4379 56.9853 19.4219 55.6765C16.9928 52.5475 14.9654 48.5221 13.6376 44.8042C12.5752 41.8295 10.3928 38.3257 10.6652 35.0567C10.8633 32.6787 14.4413 32.0056 16.1548 33.2358C20.2403 36.1689 21.5943 42.1102 24.0814 46.2235C25.7218 48.9365 28.2057 51.539 29.1694 54.6053C30.4105 58.5543 30.1475 56.5069 30.5083 53.909C31.1695 49.1481 33.888 45.8994 38.167 43.7599C39.5793 43.0538 41.8966 41.7198 43.255 43.144C44.8864 44.8543 45.6213 47.2628 45.2367 49.5709C44.6649 53.0017 37.2439 58.143 39.3453 60.8448C40.8707 62.806 42.097 64.899 43.2015 67.1378C45.7474 72.2984 48.731 77.2194 51.2619 82.375C51.3217 82.4967 53.1992 85.4873 53.6388 86.3834M53.6388 86.3834C53.71 86.5283 53.7435 86.6185 53.7256 86.6328C53.4787 86.8303 53.2433 87.0272 53.0174 87.2248M53.6388 86.3834C53.6058 86.431 53.5722 86.4784 53.5381 86.5257C53.3682 86.7609 53.1944 86.9939 53.0174 87.2248M53.6388 86.3834C58.1232 79.9201 52.7424 69.9734 52.5741 62.9603C52.4204 56.5591 52.5741 50.1372 52.5741 43.7331C52.5741 42.6942 53.3657 35.8371 51.61 36.3957C48.9498 37.2421 29.8706 32.4924 32.6506 29.0583C34.718 26.5045 40.1933 27.0478 42.6659 28.5227C43.3438 28.927 48.8161 31.7383 45.9865 29.701C42.6661 27.3103 41.1937 24.5595 39.5595 20.8372L39.5432 20.7999C38.6552 18.7778 35.6436 11.9195 40.8985 12.8303C42.741 13.1497 44.2809 15.1383 45.4241 16.4187C48.5428 19.9116 51.1494 23.932 53.8545 27.7536M53.0174 87.2248C51.4219 88.621 50.3068 90.049 49.0562 91.9103M53.0174 87.2248C51.7824 88.8366 50.3903 90.3536 49.0562 91.9103M53.8545 27.7536C53.9097 27.8316 53.9649 27.9094 54.0201 27.9871C54.201 28.2417 54.7033 29.0294 54.5021 28.7905C54.2483 28.489 54.0347 28.1388 53.8545 27.7536ZM53.8545 27.7536C52.8474 25.6002 52.8867 22.355 52.7883 20.4355C52.5459 15.7087 50.6559 6.41408 55.2519 2.86858C58.0773 0.68904 61.6229 2.94481 62.4287 5.94815C63.7962 11.0454 64.0593 16.5319 64.5174 21.7744C64.7635 24.5905 64.5688 29.0691 66.5794 31.4148C67.25 32.1972 70.2144 31.6826 71.1318 31.6826C72.5479 31.6826 76.3948 29.4581 77.157 29.8617C79.4716 31.087 73.4322 37.5361 72.7653 38.1363C71.2352 39.5134 66.1233 41.3599 66.0706 43.626C65.7704 56.5333 66.6837 69.3689 66.0974 82.2678C65.9498 85.5148 66.3158 89.2648 65.1066 92.3635C64.9569 92.747 63.3636 91.3983 61.7521 89.9395M61.7521 89.9395C60.3185 88.6418 58.8705 87.257 58.4119 86.9274C57.4654 86.2471 56.1668 85.6597 55.5733 84.5976C55.1356 83.8144 58.5228 86.7973 58.9474 87.2219C59.8681 88.1426 60.8038 89.0477 61.7521 89.9395ZM61.7521 89.9395C67.2952 95.1525 73.2695 99.9127 79.1922 104.682C86.2444 110.36 94.0333 115.832 101.954 120.16C107.487 123.183 114.027 124.955 119.29 128.389M119.29 128.389C119.367 128.44 119.444 128.49 119.521 128.542C119.951 128.828 120.532 129.325 121.021 128.836C121.028 128.829 121.036 128.821 121.044 128.813M119.29 128.389C118.311 128.196 117.347 128.086 116.415 128.086C115.94 128.086 117.352 128.316 117.754 128.568C118.727 129.181 119.782 129.681 120.78 130.256C122.915 131.485 124.78 132.907 127.287 132.907C128.155 132.907 128.98 132.739 129.777 132.463M119.29 128.389C119.87 128.503 120.456 128.647 121.044 128.813M121.044 128.813C122.738 127.117 123.954 125.634 126.109 124.337C130.884 121.464 135.72 118.614 140.543 115.822C143.89 113.884 147.528 112.457 150.852 110.493C152.988 109.231 152.229 107.666 151.977 105.539C151.586 102.238 150.679 98.935 150.451 95.6305C150.389 94.7302 151.119 88.8952 152.459 91.453C154.087 94.5604 156.128 98.8693 156.663 102.352C156.754 102.943 156.592 104.736 156.69 104.146C156.877 103.027 157.569 101.96 158.029 100.933C159.523 97.6001 162.012 94.5075 164.751 92.1225C167.568 89.6687 170.763 87.9251 174.337 86.8738C176.645 86.195 179.247 86.7383 177.953 89.632C174.971 96.2979 167.925 100.463 162.956 105.432C162.823 105.565 161.881 106.351 162.582 106.101C164.962 105.251 167.222 105.283 169.812 105.217C172.446 105.15 190.892 103.325 188.343 109.582C186.662 113.708 176.886 111.333 173.481 111.243C171.073 111.178 167.591 111.026 165.367 112.073C164.827 112.327 166.712 112.18 167.107 112.18C169.827 112.18 176.366 113.094 177.31 116.304C177.803 117.98 178.253 118.572 176.694 119.651C174.806 120.958 172.472 121.418 170.24 121.713C165.656 122.319 161.091 118.018 156.476 118.018C154.724 118.018 151.061 121.619 149.353 122.409C145.253 124.306 141.304 126.486 137.195 128.354C134.692 129.492 132.389 131.559 129.777 132.463M121.044 128.813C124.073 129.672 127.147 131.151 129.777 132.463M129.777 132.463C130.247 132.698 130.704 132.928 131.143 133.148C133.588 134.37 136.017 135.617 138.454 136.847M138.454 136.847C138.536 136.889 138.618 136.93 138.7 136.972M138.454 136.847C138.515 136.638 138.605 136.718 138.7 136.972M138.454 136.847C138.404 137.015 138.373 137.368 138.373 137.968C138.373 140.16 138.538 142.407 138.266 144.582C137.866 147.783 138.101 150.966 137.784 154.169C137.487 157.183 137.939 161.697 136.686 164.452C135.998 165.967 136.167 165.259 134.624 165.791C131.647 166.818 128.733 168.685 125.868 170.022C121.88 171.883 117.584 173.1 113.576 174.949C111.31 175.995 104.406 176.708 106.078 180.145C107.254 182.561 108.449 185.132 109.827 187.428C111.129 189.599 111.513 191.924 112.612 194.123C112.98 194.858 113.835 197.148 113.898 197.015C115.934 192.688 118.801 185.869 124.154 185.045C128.558 184.368 131.222 186.781 130.313 191.258C129.712 194.217 128.104 195.729 125.305 196.694C125.083 196.771 121.645 197.534 122.842 198.086C127.795 200.372 135.676 205.371 137.891 210.619C139.314 213.989 142.493 223.129 135.642 221.759C130.827 220.796 127.304 216.727 124.448 212.975C123.175 211.302 120.133 207.718 122.279 212.011C124.583 216.619 125.15 220.993 125.386 226.07C125.512 228.784 126.126 231.912 122.574 229.792C118.622 227.434 117.942 224.126 116.442 220.125C115.856 218.565 114.755 212.528 114.755 217.314C114.755 221.835 115.127 226.532 114.647 231.024C114.336 233.943 113.065 234.983 110.202 235.764C101.502 238.137 103.552 221.349 105.837 216.778C109.39 209.672 108.28 204.129 102.758 198.515C100.465 196.184 99.4566 192.673 99.982 189.432M138.7 136.972C141.215 138.24 143.74 139.488 146.3 140.672C149.204 142.015 151.531 144.279 154.334 145.68C156.885 146.956 159.715 147.765 162.367 148.813C163.679 149.332 165.377 149.355 166.572 150.018C168.407 151.038 169.052 151.06 168.848 148.867C168.328 143.276 168.046 138.537 172.088 134.192C173.085 133.12 180.346 127.079 181.22 130.791C182.116 134.602 178.862 139.095 177.417 142.386C176.743 143.921 176.197 145.492 175.73 147.099C175.609 147.517 174.646 149.565 174.98 149.349C179.873 146.183 183.982 145.048 189.95 144.957C192.727 144.915 202.421 145.514 200.768 150.474C199.58 154.04 191.718 154.381 188.691 155.321C186.52 155.994 183.734 156.526 181.434 156.526C180.576 156.526 176.867 156.488 179.452 157.382C183.834 158.899 187.435 159.068 191.262 161.988C194.099 164.154 195.49 167.577 196.591 170.879C197.163 172.597 197.726 173.851 197.662 175.699C197.552 178.871 193.447 177.911 191.663 176.503C187.073 172.878 183.67 167.344 178.622 164.238C177.784 163.722 176.453 162.208 176.453 163.863C176.453 168.004 173.495 171.007 170.883 174.039C170.258 174.764 164.769 180.725 164.429 177.493C164.161 174.943 164.985 172.262 165.581 169.808C166.223 167.162 167.404 164.198 167.295 161.453C167.26 160.582 163.165 160.35 162.394 160.114C154.876 157.817 148.476 154.606 141.801 150.527C140.777 149.901 139.884 149.295 138.641 149.295C137.265 149.295 139.041 141.316 139.123 140.298C139.203 139.313 138.937 137.604 138.7 136.972ZM99.982 189.432C100.051 189.008 100.146 188.589 100.267 188.178C101.472 184.104 106.96 172.558 105.382 176.503C103.65 180.833 101.614 185.061 99.982 189.432ZM99.982 189.432C99.9248 189.585 99.8681 189.738 99.8119 189.892C97.2484 196.899 95.9144 204.524 92.6888 211.262C90.9094 214.978 89.6785 218.864 88.0025 222.589C87.6054 223.471 86.7986 226.905 86.3154 224.972M103.668 44.6971C103.463 43.5332 103.606 42.3755 103.87 41.2173M103.87 41.2173C104.519 38.3714 105.899 35.5219 104.632 32.5663C102.857 28.4239 100.587 23.2617 96.9198 20.4355C92.1248 16.7403 85.7698 14.1476 80.1563 17.8112C74.2711 21.652 70.2397 29.6929 71.8548 36.6635C72.9582 41.4255 78.0923 44.3448 79.46 48.8211C79.7119 49.6453 79.5772 49.8632 78.8441 50.0261C77.4242 50.3417 76.4373 53.5297 76.4072 54.6589C76.2856 59.219 78.3569 64.4004 79.701 68.5839C81.325 73.6384 82.8953 79.2992 85.7798 83.8478C88.0487 87.4257 91.4254 90.5424 94.5165 93.3955L94.6168 93.4882C103.374 101.572 114.08 106.138 125.627 102.325C133.273 99.8003 138.677 93.6761 143.22 87.4094C145.193 84.6891 147.559 81.7707 148.496 78.492C149.008 76.6997 151.361 78.0335 152.7 77.9029C159.163 77.2724 163.826 69.1525 162.153 63.0674C160.515 57.1102 155.42 51.7274 149.165 51.4722C145.849 51.3368 143.176 51.9945 140.194 53.3735C138.294 54.2525 137.029 55.7598 135.267 56.7208C134.072 57.3727 134.106 56.3733 133.821 55.3551C132.991 52.3832 131.34 49.6027 129.188 47.4018C126.036 44.1776 121.189 40.2503 116.522 39.8769C114.319 39.7007 107.407 39.3722 103.87 41.2173ZM103.87 41.2173C102.581 41.89 101.74 42.8517 101.74 44.2151M103.668 58.1937C100.754 55.8624 97.6991 63.7012 102.811 65.2097C104.795 65.795 105.847 64.0647 106.346 62.4247C107.049 60.1163 104.461 57.4227 103.186 55.7836M123.431 64.9419C121.77 66.2335 123.001 71.0989 124.181 72.6007C124.901 73.5175 127.724 73.0921 128.331 72.199C130.701 68.7149 125.705 64.2195 123.913 62.0498M113.308 63.9779C112.836 64.0209 112.414 64.1173 112.052 64.2592M112.052 64.2592C110.395 64.9085 109.971 66.5109 111.488 68.3161C112.285 69.2651 113.083 69.4404 113.741 69.1863M112.052 64.2592C112.632 64.126 113.296 64.2049 113.905 64.5165M112.052 64.2592C110.948 64.5132 110.151 65.5378 110.631 67.1914C111.245 69.3073 112.474 69.9723 113.657 69.7746M113.741 69.1863C115.096 68.6625 115.851 66.3137 114.755 65.1562C114.496 64.8838 114.207 64.6714 113.905 64.5165M113.741 69.1863C113.768 68.937 113.785 68.6829 113.79 68.4232C113.8 67.9784 113.688 65.959 113.905 64.5165M113.741 69.1863C113.719 69.3853 113.691 69.5812 113.657 69.7746M113.905 64.5165C114.106 63.1778 114.591 62.3359 115.719 63.7101C117.789 66.2339 115.798 69.4167 113.657 69.7746M113.657 69.7746C113.255 72.0698 112.062 73.999 111.488 76.2962C111.128 77.7339 108.35 87.5968 108.006 87.5968M112.826 72.6542H90.6536M113.308 69.7621C111.095 70.5921 116.053 80.8112 117.406 82.2679C119.264 84.2694 124.918 90.4619 127.769 88.5609M103.186 76.0284C102.369 79.0233 99.7549 80.7665 100.776 84.4905C101.526 87.2257 103.414 89.6314 105.114 91.8279C111.892 100.582 116.252 87.2908 117.165 81.8126M102.704 76.9924C101.474 77.4844 103.341 73.1525 103.668 72.1722M87.2795 135.317L87.2773 135.318C85.4305 135.991 79.4448 138.175 81.6559 141.262C83.489 143.82 88.3634 148.367 91.7783 145.546C94.6021 143.214 94.0214 139.086 93.0637 136.093C91.936 132.569 88.5392 132.907 85.3514 132.907M78.1211 166.166C76.0847 165.351 77.2095 165.163 75.229 166.648M76.675 164.72C76.5027 164.757 76.3323 164.817 76.1643 164.897M76.1643 164.897C73.0362 166.392 70.7766 175.031 73.6758 176.77C76.0542 178.197 80.3795 177.452 81.3881 174.628C82.3768 171.86 80.6478 162.231 76.1643 164.897ZM76.1643 164.897C76.0162 164.985 75.8651 165.086 75.711 165.202M70.4088 195.087C68.7381 195.273 65.6264 195.31 64.5174 196.747C62.0815 199.905 65.6036 205.123 68.2129 207.111C71.4407 209.57 74.2114 207.012 74.2114 203.415C74.2114 200.586 73.6476 197.411 71.7477 195.194C69.8966 193.035 68.0081 192.491 67.0346 195.087" stroke="white" stroke-width="4"/>
</svg>
