<svg width="1418" height="5235" viewBox="0 0 1418 5235" fill="none" xmlns="http://www.w3.org/2000/svg">
<path d="M137.543 19.2302C125.692 -11.0555 117.086 24.5661 110.418 40.5681C104.583 54.5737 67.3625 96.8352 86.9105 110.368C107.227 124.433 131.972 128.591 154.179 116.155C187.263 97.6279 186.451 89.4294 218.916 103.859C236.948 111.873 226.973 131.212 217.108 141.471C192.15 167.428 167.544 182.78 150.924 217.058C134.553 250.823 112.615 284.753 93.4203 317.238C59.6992 374.304 135.685 362.183 169.369 347.617C171.794 346.568 200.556 322.45 179.495 326.279C160.217 329.784 141.219 367.775 132.118 382.336C112.511 413.707 105.795 437.42 104.993 473.474C104.595 491.409 79.438 564.612 106.44 561.719C125.648 559.661 146.367 552.755 163.221 543.275C169.346 539.829 178.789 527.723 186.005 527.723C198.711 527.723 148.686 637.638 145.499 646.348C139.878 661.712 102.683 746.487 152.009 733.869C192.135 723.604 205.738 656.177 212.045 622.84C223.907 560.137 191.617 494.751 205.896 434.777C216.397 390.672 296.641 442.308 316.926 451.775C351.664 467.986 398.066 494.451 436.997 494.451C467.749 494.451 495.487 471.989 520.178 456.838C536.531 446.803 552.763 434.667 569.002 425.735C617.468 399.08 625.783 407.035 625.783 457.561C625.783 482.206 619.042 488.071 599.743 502.407C566.737 526.926 568.357 542.454 559.238 581.972C539.786 666.263 609.402 555.243 640.249 553.039C654.77 552.002 674.898 559.633 677.5 576.547C684.148 619.756 647.276 628.849 626.145 653.942C601.997 682.618 638.523 706.729 667.735 701.32C685.258 698.075 710.78 679.797 728.494 684.683C737.953 687.293 740.421 707.358 750.917 704.936C785.453 696.966 794.125 637.009 775.51 613.075C766.243 601.16 762.32 608.671 776.233 604.033C801.264 595.69 821.143 556.383 825.781 532.425C830.955 505.692 782.595 509.638 767.553 498.067C727.462 467.228 846.004 429.598 858.33 427.544C908.157 419.239 883.175 443.883 894.134 473.474C905.473 504.09 951.353 504.105 969.359 481.431C982.861 464.428 982.587 452.816 1006.97 445.988C1020.44 442.216 1094.91 422.43 1067.37 449.967C1047.9 469.432 934.693 520.258 952.723 553.039C979.224 601.224 1121.19 547.501 1151.64 529.17C1164.82 521.234 1235.9 472.522 1191.78 453.221C1168.56 443.064 1154.41 478.932 1162.49 495.897C1205.01 585.189 1302.69 424.362 1338.25 510.725C1350.29 539.971 1319.84 609.699 1302.81 634.774C1274.16 676.949 1252.47 640.474 1220.35 634.051C1172.47 624.475 1162.43 683.309 1140.79 710.361C1138.04 713.788 1139.17 701.609 1137.17 697.703C1131.52 686.681 1120.28 680.771 1108.6 678.174C1072.23 670.093 1028.45 683.913 993.229 693.363C971.757 699.124 820.845 739.717 823.972 767.865C826.652 791.983 964.936 780.885 987.442 780.885C1058.21 780.885 1134.13 764.14 1204.44 772.928C1228.34 775.917 1284.03 813.926 1283.28 842.367C1282.04 889.37 1248.89 937.274 1216.01 968.586C1190.73 992.664 1180.18 973.468 1156.34 950.503C1111.61 907.436 1103.76 963.174 1093.05 998.604C1086.82 1019.19 1071.35 1044.67 1071.35 1066.6C1071.35 1073.93 1078.64 1051.24 1074.96 1044.9C1047.18 996.899 984.672 997.863 939.703 1016.69C922.727 1023.79 814.071 1109.75 873.158 1106.38C945.922 1102.22 880.661 974.792 828.312 970.033C788.872 966.447 748.379 1033.77 722.708 1056.47C686.794 1088.22 608.532 1095.14 565.747 1072.38C523.406 1049.86 477.532 1040.29 430.849 1028.62C378.315 1015.49 347.675 926.343 294.141 931.697C262.816 934.829 248.211 981.332 248.211 1007.28C248.211 1031.5 263.85 1045.04 274.612 1018.13C292.429 973.591 288.771 956.41 230.851 967.501C212.628 970.991 145.499 985.778 145.499 1013.79C145.499 1013.83 77.2183 1036.06 71.7208 1038.39C55.4377 1045.26 23.4575 1052.02 43.5114 1072.74C71.7153 1101.89 108.253 1125.03 143.329 1145.08C186.31 1169.64 142.986 1155.67 119.46 1152.31C68.8353 1145.08 229.425 1148.81 268.463 1115.78C291.471 1096.31 218.732 1225.5 233.021 1198.96C242.202 1181.91 281.367 1075.19 303.183 1081.42C303.196 1081.43 329.116 1172.74 334.285 1167.14C338.819 1162.23 375.472 1094.47 378.046 1103.49C386.355 1132.57 391.153 1163.97 413.851 1186.67C427.228 1200.04 439.169 1124.46 443.507 1115.78C456.778 1089.24 478.669 1167.56 507.159 1157.01C526.275 1149.93 528.135 1096.61 528.135 1149.05C528.135 1160.35 523.492 1186.49 532.113 1196.07C539.131 1203.87 552.366 1187.75 553.813 1181.24C554.958 1176.09 489.92 1228.79 501.372 1238.02C503.812 1239.99 546.831 1259.05 524.157 1269.12C500.659 1279.57 476.196 1288.16 451.463 1295.16C414.414 1305.66 380.626 1295.16 342.965 1295.16C302.085 1295.16 209.051 1286.97 315.479 1323.74C335.505 1330.65 357.204 1331.59 329.222 1340.73C299.831 1350.34 271.775 1360.45 243.871 1374.01C238.038 1376.84 197.578 1412.55 217.831 1418.85C274.342 1436.43 351.145 1399.32 411.319 1399.32C470.551 1399.32 462.293 1453.62 500.649 1478.16C509.835 1484.04 553.896 1420.76 587.809 1433.32C637.799 1451.83 554.898 1521.2 554.898 1545.43C554.898 1576.61 654.416 1599.06 678.585 1604.74C705.448 1611.07 718.993 1548.65 724.154 1524.46C736.882 1464.79 653.069 1513.83 709.326 1517.95C748.314 1520.8 766.599 1487.33 792.146 1527.71C808.605 1553.73 830.026 1594.32 868.095 1577.26C903.165 1561.54 905.02 1482.33 949.83 1480.33C964.721 1479.67 972.362 1498.42 981.656 1506.74C999.427 1522.64 1027.17 1536.81 1051.09 1529.16C1083.39 1518.82 1101.62 1487.23 1110.41 1456.46C1117.54 1431.48 1123.67 1405.73 1125.96 1379.79C1127.8 1358.91 1124.44 1321.84 1157.42 1352.31C1199.64 1391.3 1228.07 1444.23 1263.39 1489.01C1269.46 1496.71 1284 1500.19 1284 1509.99C1284 1541.08 1184.03 1520.59 1237.35 1568.58C1261.9 1590.68 1282.22 1617.45 1304.62 1641.63C1309.01 1646.37 1334.64 1663.89 1334.64 1669.84C1334.64 1677.68 1325.29 1727.29 1351.27 1715.41C1367.92 1707.8 1410.58 1644.83 1410.58 1657.55C1410.58 1684.34 1410.97 1722.32 1399.73 1747.6C1393.52 1761.57 1345.68 1796.93 1330.3 1801.49C1302.93 1809.6 1194.7 1727.93 1205.52 1819.93C1209.38 1852.75 1227.35 1870.25 1195.76 1895.52C1158.07 1925.67 1172.17 1881.25 1150.19 1858.63C1129.52 1837.35 1111.19 1838.91 1094.86 1864.78C1075.63 1895.23 1125.18 1882.46 1083.64 1851.76C1066.94 1839.41 1043.41 1826.49 1022.16 1833.31C1005.04 1838.81 988.315 1850.17 976.954 1864.05C972.602 1869.37 966.286 1889.37 969.359 1883.22C983.901 1854.14 895.677 1793.61 868.456 1823.55C863.327 1829.19 863.674 1848.19 857.968 1848.5C835.503 1849.72 804.893 1843.46 786.36 1860.08C752.03 1890.86 844.822 1878.58 790.7 1902.03C766.766 1912.4 695.728 1973.53 755.98 1984.49C767.956 1986.66 787.539 1983.19 765.383 1975.81C744.166 1968.73 715.743 1990.39 713.305 2012.33C709.531 2046.29 743.962 2062.27 771.893 2053.2C790.171 2047.27 796.032 2032.79 791.423 2055.37C786.15 2081.21 808.915 2135.9 838.439 2138.55C852.097 2139.78 868.473 2133.46 878.221 2124.09C879.931 2122.44 892.126 2099.41 897.751 2109.62C914.88 2140.71 903.889 2170 935.363 2195.33C964.104 2218.47 971.014 2206.4 983.464 2179.42C985.524 2174.96 1038.28 2232.23 1043.86 2237.65C1075.51 2268.35 1090.02 2252.16 1114.75 2221.74C1128.41 2204.92 1132.01 2207.58 1153.08 2209.44C1193.16 2212.98 1178.1 2155.01 1170.08 2130.96C1168.48 2126.17 1176.86 2155.79 1201.54 2133.49C1226.25 2111.18 1228.6 2068.28 1211.31 2040.18C1203.15 2026.92 1179.71 2035.88 1182.74 2051.03C1184.26 2058.64 1195.96 2054.9 1195.4 2047.05C1194.18 2029.99 1179.48 2007.52 1170.44 1993.89C1154.34 1969.62 1093.02 1934.47 1077.86 1978.7C1076.52 1982.6 1081.98 1978.91 1072.79 1970.02C1053.46 1951.31 1024.3 1935.35 999.739 1925.17C961.323 1909.26 954.262 1939.39 951.276 1970.74C950.551 1978.36 940.574 1959.28 939.703 1958.45C929.244 1948.46 918.213 1950.78 906.431 1957.36C879.942 1972.17 899.65 2006.37 916.195 1995.34C925.674 1989.02 901.133 1974.73 889.794 1973.64C866.418 1971.39 832.549 1977.31 816.377 1996.42C797.204 2019.08 813.616 2055.66 794.316 2080.69C768.259 2114.48 724.226 2137.03 682.202 2125.53C651.069 2117.02 627.904 2100.47 606.615 2132.41C591.052 2155.75 585.897 2183.66 554.174 2162.79C528.634 2145.98 509.784 2130.01 478.226 2124.81C460.848 2121.95 438.17 2147.62 436.997 2123.36C435.659 2095.72 447.314 2050.58 434.103 2025.72C426.377 2011.17 383.876 2058.25 377.685 2062.61C325.57 2099.28 381.29 1990.17 387.088 1974.36C398.215 1944.01 369.732 1917.74 358.878 1889.01C329.448 1811.1 339.671 1960.02 300.289 1926.26C285.641 1913.7 265.732 1897.48 245.679 1895.88C228.874 1894.54 206.294 1911.77 218.193 1928.43C235.448 1952.59 260.971 1974.59 266.294 2005.46C269.54 2024.29 242.359 2034.29 233.744 2048.14C209.401 2087.26 247.014 2091.91 270.633 2119.02C281.149 2131.1 286.8 2143.4 293.78 2157.36C300.903 2171.61 313.448 2170.87 320.542 2181.95C328.581 2194.51 297.902 2210.99 291.61 2216.67C274.057 2232.51 283.973 2256.74 287.27 2276.71C292.121 2306.1 297.767 2335.28 302.821 2364.59C307.367 2390.96 271.941 2361.63 261.23 2356.27C196.131 2323.72 251.426 2349.63 269.548 2384.48C293.836 2431.19 100.706 2443.77 76.784 2447.41C70.2735 2448.4 31.0887 2450.58 56.1694 2457.18C79.7337 2463.38 104.582 2470.24 125.608 2482.85C163.779 2505.76 75.8743 2561.57 126.693 2537.1C154.918 2523.51 172.613 2512.85 186.367 2546.14C192.483 2560.95 207.776 2607.91 225.064 2572.18C234.439 2552.81 235.929 2505.63 261.954 2499.13C285.851 2493.15 326.258 2565.82 338.987 2580.14C351.592 2594.32 381.45 2636.36 382.025 2617.39C382.638 2597.13 377.793 2576.52 378.408 2555.91C379.487 2519.75 389.802 2484.43 391.428 2448.13C392.234 2430.11 396.933 2422.64 416.021 2421.37C462.8 2418.25 500.188 2406.74 547.664 2421.73C581.788 2432.51 618.95 2444.45 651.822 2457.9C685.781 2471.79 700.193 2477.1 735.004 2463.32C767.647 2450.4 817.254 2449.28 814.207 2405.1C814.076 2403.19 802.749 2369.19 797.933 2386.65C790.063 2415.18 858.665 2440.84 878.944 2436.56C898.984 2432.33 928.853 2420.72 928.853 2396.06C928.853 2383.53 918.504 2420.81 921.62 2432.94C944.92 2523.69 1056.88 2409 1078.22 2375.8C1083.66 2367.33 1098.79 2334.05 1108.96 2333.13C1137.11 2330.57 1141.91 2401.76 1143.68 2412.69C1147.97 2439.19 1147.56 2466.73 1153.08 2492.98C1154.61 2500.22 1197.05 2461.31 1202.99 2455.37C1208.72 2449.64 1215.29 2426.29 1215.29 2434.39C1215.29 2468.96 1203.58 2505.86 1189.97 2537.1C1158.9 2608.42 1064.12 2601.59 1006.61 2574.35C971.666 2557.8 926.051 2536.98 952.723 2593.52C977.641 2646.35 952.257 2611.22 925.237 2631.13C909.721 2642.57 940.398 2708.36 917.642 2698.4C889.223 2685.97 842.668 2698.03 812.037 2693.7C788.657 2690.4 765.79 2685.48 744.407 2675.26C743.7 2674.92 727.491 2663.67 724.878 2666.94C719.583 2673.56 748.185 2713.27 751.64 2718.66C762.275 2735.23 776.12 2743.12 795.763 2745.42C809.581 2747.03 847.364 2739.59 852.543 2757.71C856.07 2770.06 856.468 2795.56 852.543 2807.99C844.32 2834.03 785.239 2789.73 789.976 2806.9C791.234 2811.46 802.846 2854.31 798.656 2853.19C795.853 2852.45 786.032 2835.48 783.466 2839.45C773.62 2854.67 764.66 2889.99 764.66 2907.8C764.66 2925.07 792.32 2875.48 808.783 2880.68C823.487 2885.32 789.253 2940.96 789.253 2953.73C789.253 2959.23 840.652 2924.84 848.927 2920.82C901.099 2895.48 884.596 2977.88 899.197 3008.71C901.823 3014.25 924.409 2873.82 944.766 2885.02C1008.45 2920.04 1049.37 2994.36 1114.38 3030.77C1137.53 3043.73 1200.53 2968.85 1217.46 2954.46C1260.8 2917.62 1311.89 2891.29 1337.17 2963.5C1354.35 3012.6 1379.25 3102.73 1349.82 3152.29C1325.55 3193.17 1253.05 3281.66 1194.31 3255.36C1131.72 3227.33 1162.04 3144.38 1207.33 3117.2C1239.17 3098.1 1272.51 3101.41 1293.04 3131.67C1313.11 3161.24 1323.09 3197.93 1334.27 3231.49C1342.4 3255.88 1341.92 3215.17 1342.23 3210.15C1344.47 3174.34 1339.44 3266.73 1338.98 3269.1C1322.96 3351.6 1289.89 3439.38 1244.94 3510.69C1236.3 3524.41 1212.99 3572.34 1193.95 3575.07C1155.82 3580.51 1145.45 3534.69 1140.06 3508.52C1129.64 3457.9 1110.62 3418.29 1085.09 3373.98C1063.97 3337.33 1049.91 3293.69 1001.91 3293.69C970.947 3293.69 936.398 3308.63 906.069 3296.23C870.449 3281.65 907.784 3222.09 921.62 3202.56C950.671 3161.54 850.883 3226.41 840.609 3227.15C803.676 3229.79 757.117 3063.47 723.431 3080.32C714.93 3084.57 713.706 3093.85 702.816 3087.91C655.468 3062.08 602.754 3023.5 563.578 2986.28C542.1 2965.88 541.155 2969.51 541.155 3001.47C541.155 3018.34 539.312 3036.16 544.41 3052.47C550.598 3072.27 530.846 3065.85 515.115 3065.85C507.739 3065.85 467.921 3064.52 490.522 3079.59C495.732 3083.06 526.916 3113.91 515.838 3109.25C492.263 3099.32 469.996 3080.12 450.016 3064.4C441.943 3058.05 386.191 3017.3 399.384 3055C402.975 3065.26 438.65 3114.47 426.147 3122.99C406.359 3136.48 343.389 3120.43 322.712 3119.37C280.292 3117.2 51.9248 3063.01 46.7663 3099.12C42.7703 3127.09 40.0664 3154.59 33.3849 3182.3C28.3981 3202.98 -6.00018 3250.7 13.8553 3243.06C51.7868 3228.47 116.014 3178.85 154.541 3202.56C159.993 3205.91 179.14 3211.28 180.219 3218.47C184.223 3245.17 177.782 3275.57 183.112 3303.82C184.937 3313.49 212.971 3341.26 215.661 3319.73C217.189 3307.51 152.158 3313.17 146.223 3313.22C130.059 3313.36 82.3428 3315.87 98.1219 3319.37C115.641 3323.26 133.645 3317.74 151.286 3323.35C228.651 3347.97 93.4545 3375.02 72.0824 3385.19C61.6106 3390.18 65.9381 3407.58 70.2741 3415.21C83.4523 3438.41 99.3664 3445.2 125.246 3448.48C154.782 3452.23 221.113 3451.68 219.278 3405.81C218.562 3387.92 186.278 3404.8 190.345 3422.08C197.703 3453.35 225.849 3507.79 265.57 3500.56C298.465 3494.58 314.368 3464.73 328.861 3437.27C336.062 3423.63 358.608 3334.65 387.811 3371.81C410.364 3400.52 383.179 3451.92 419.637 3472.35C449.885 3489.31 516.714 3489.52 508.605 3435.46C508.155 3432.46 482.568 3469.8 481.481 3479.95C479.128 3501.91 534.072 3527.89 550.196 3532.39C576.535 3539.74 601.704 3535.58 615.656 3511.77C621.663 3501.53 635.379 3468.75 621.443 3458.61C608.629 3449.29 595.023 3475.75 593.234 3483.2C584.277 3520.52 595.666 3536.47 626.506 3556.26C665.865 3581.52 715.929 3582.82 735.004 3532.75C739.914 3519.86 734.683 3521.94 744.407 3531.67C762.061 3549.32 814.104 3571.86 838.439 3561.32C850.691 3556.02 874.674 3539.79 878.221 3525.16C879.56 3519.63 878.994 3502.69 868.818 3506.35C832.172 3519.54 869.696 3569.58 901.729 3559.88C962.53 3541.45 889.85 3512.11 902.452 3546.13C910.335 3567.41 939.147 3598.05 960.68 3606.17C969.168 3609.37 1025.67 3606.03 1018.54 3599.66C1008.63 3590.79 991.685 3592.01 985.272 3604C967.756 3636.75 1013.89 3656.54 1037.35 3665.48C1075.86 3680.15 1071.85 3622.22 1040.24 3642.33C1026.5 3651.08 1097.81 3758.65 1132.11 3687.9C1138.86 3673.97 1140.41 3680.48 1153.08 3686.82C1174.21 3697.38 1195.99 3667.39 1206.97 3653.18C1238.09 3612.91 1244.91 3647.51 1277.13 3667.65C1297.6 3680.44 1308.43 3681.76 1323.06 3661.14C1336.14 3642.7 1360.89 3592.21 1376.59 3637.27C1393.25 3685.09 1362.37 3777.92 1331.74 3816.65C1304.56 3851.03 1276.3 3890.86 1238.8 3914.3C1173.21 3955.29 1102.84 3861.67 1050.37 3843.42C953.566 3809.75 1041.71 3929.75 1010.59 3952.64C963.669 3987.14 905.23 3875.22 843.14 3892.96C824.542 3898.28 950.104 3883.53 857.968 3874.52C811.935 3870.02 763.731 3871.85 717.644 3873.07C703.502 3873.45 652.25 3883.12 675.692 3908.52C681.878 3915.22 699.534 3948.86 678.224 3929.49C650.683 3904.45 647.853 3855.04 624.336 3825.33C614.888 3813.4 580.617 3839.2 576.959 3849.56C573.488 3859.4 601.828 3871.07 601.19 3861.5C599.889 3841.99 575.366 3825.56 557.791 3834.74C522.209 3853.32 543.253 3868.01 559.961 3841.97C578.503 3813.07 518.404 3739.67 497.755 3721.9C446.764 3678.01 475.863 3745.5 484.736 3773.98C501.214 3826.86 522.404 3868.14 501.734 3921.53C478.642 3981.19 391.988 3947.28 350.922 3930.21C313.158 3914.52 190.187 3872.79 204.811 3809.42C210.393 3785.23 261.753 3768.44 281.845 3763.85C317.548 3755.69 375.079 3795.96 398.299 3819.18C411.044 3831.93 458.97 3898.06 427.594 3910.68C390.362 3925.66 347.381 3912.07 309.693 3927.32C293.052 3934.06 220.953 3964.03 230.851 3993.14C239.776 4019.39 273.285 4009 293.056 4011.23C343.157 4016.86 297.677 4046.79 278.952 4068.37C262.591 4087.23 238.079 4111.98 280.037 4114.66C325.346 4117.55 372.912 4110.19 418.19 4107.79C444.654 4106.38 554.747 4084.13 550.558 4130.21C547.848 4160.02 561.969 4182.12 592.872 4190.25C621.337 4197.74 800.105 4133.9 779.126 4206.52C773.933 4224.5 766.549 4226.13 782.381 4241.24C805.369 4263.18 809.356 4299.49 809.868 4330.21C810.497 4367.98 804.477 4424.25 761.767 4436.54C709.739 4451.5 648.409 4449.73 600.467 4424.24C575.055 4410.73 574.86 4392.92 603.36 4378.67C639.868 4360.42 744.105 4370.48 758.874 4415.56C773.092 4458.96 735.58 4483.25 704.986 4501.27C648.738 4534.42 719.77 4547.71 752.725 4562.03C839.462 4599.75 695.583 4626.87 695.583 4679.93C695.583 4712.44 758.325 4709.79 762.49 4751.18C766.406 4790.09 719.209 4864.19 771.17 4880.66C803.382 4890.86 846.058 4885.11 873.158 4908.86C915.658 4946.12 924.643 5020.83 937.533 5071.61C957.264 5149.35 968.14 5179.48 1029.39 5227.12" stroke="#41FF5D" stroke-width="14" stroke-linecap="round"/>
</svg>
