<svg width="1404" height="1295" viewBox="0 0 1404 1295" fill="none" xmlns="http://www.w3.org/2000/svg">
<path d="M169.881 1287.05C150.912 1279.94 183.956 1247.11 188.669 1240.86C204.625 1219.72 226.296 1201.58 235.698 1176.48C240.093 1164.75 259.454 1127.69 243.596 1116.53C231.4 1107.94 186.756 1107.89 178.617 1107.43C170.038 1106.95 123.763 1104.86 110.645 1103.72C79.2016 1100.99 3.77438 1069.37 40.0414 1029.29C54.2398 1013.6 72.6853 1003.57 94.0116 1001.77C116.391 999.874 133.633 1010.41 154.324 1015.41C179.61 1021.52 250.897 1019.34 253.17 980.705C253.708 971.56 242.398 969.029 235.938 967.302C207.529 959.71 177.715 958.837 149.059 952.104C124.6 946.358 109.798 934.839 90.3019 919.435C68.8744 902.505 41.4928 887.637 22.8092 867.619C15.045 859.3 9.35587 846.084 7.37209 834.949C4.61397 819.468 19.5418 810.3 30.3483 802.4C38.4294 796.492 45.6282 798.707 41.9561 792.587C26.3833 766.632 8.81992 744.1 8.0901 712.17C7.66095 693.395 20.7632 698.987 35.135 702.358C66.0396 709.605 112.363 729.847 139.007 701.4C171.59 666.612 158.346 615.265 173.83 574.672C178.692 561.925 184.314 549.846 197.165 543.798C209.783 537.86 227.668 530.086 241.921 531.472C249.093 532.169 257.857 538.926 261.307 545.114C269.843 560.424 245.952 581.839 237.852 591.306C219.744 612.472 201.595 627.85 191.182 653.772C176.139 691.219 216.122 706.513 244.554 714.324C261.161 718.887 276.08 693.238 282.847 682.014C285.413 677.759 292.898 664.915 290.865 669.449C282.674 687.722 274.285 705.766 265.017 723.539C253.341 745.927 240.835 767.872 229.954 790.672C228.76 793.174 206.096 831.616 221.099 829.684C231.87 828.297 247.51 823.048 255.563 815.324C280.732 791.182 302.686 763.048 329.997 741.13C333.503 738.316 340.014 731.156 342.083 735.147C345.1 740.964 339.201 747.998 336.698 754.054C331.199 767.362 324.383 780.086 318.149 793.066C308.034 814.129 277.552 855.971 286.557 882.577C293.182 902.152 319.862 891.348 332.51 881.979C356.264 864.383 372.955 836.781 385.283 810.537C396.742 786.145 396.295 758.849 405.387 733.711C413.779 710.511 426.553 682.448 450.861 671.603C486.653 655.634 489.434 702.273 491.548 724.376C492.089 730.033 490.259 743.949 498.728 745.917C508.048 748.082 520.01 745.506 526.012 737.779C551.837 704.536 544.941 654.955 519.55 623.855C501.18 601.355 473.676 588.621 452.895 568.569C427.717 544.274 411.786 519.173 394.617 488.631C386.66 474.475 378.932 459.257 369.008 446.268C361.424 436.342 347.628 437.055 336.219 436.216C306.732 434.048 276.942 433.093 247.665 438.011C202.366 445.622 155.938 465.306 109.568 464.458C81.6986 463.948 74.3623 428.738 81.3268 407.735C88.3837 386.454 110.075 371.406 125.843 356.996C141.16 342.999 157.177 324.422 175.864 314.634C209.781 296.868 232.555 329.608 261.188 341.798C292.861 355.283 304.435 331.975 319.466 307.334C337.897 277.118 365.295 252.017 401.319 244.748C416.93 241.598 433.527 250.344 444.878 260.544C457.302 271.708 452.346 290.854 450.382 305.3C448.679 317.835 444.598 329.83 443.083 342.397C441.09 358.926 437.924 391.013 452.417 403.786C459.78 410.276 475.682 409.929 484.607 408.932C503.011 406.876 516.809 390.506 529.842 379.015C551.064 360.303 572.06 342.513 599.488 334.14C618.836 328.234 630.216 332.049 648.313 340.961C657.348 345.41 670.514 349.62 672.965 361.783C676.128 377.487 661.503 410.304 658.126 419.822C640.657 469.051 615.099 523.786 616.96 577.424C618.519 622.354 651.928 621.972 679.187 644.199C712.143 671.071 666.571 738.359 638.022 751.661C612.62 763.496 590.709 758.008 564.067 760.037C517.152 763.612 470.507 783.531 437.099 816.521C425.869 827.61 398.324 858.481 407.063 876.833C423.487 911.324 481.479 891.859 505.669 880.423C518.324 874.441 538.09 855.232 528.884 838.779C520.178 823.219 498.126 818.385 482.453 825.137C462.439 833.758 445.688 847.941 432.313 865.106C420.512 880.25 410.273 896.961 399.883 913.093C394.998 920.676 392.11 964.474 394.617 973.764C401.267 998.409 412.448 1025.39 437.099 1028.5C415.5 1025.77 441.672 1027.05 448.707 1024.26C481.172 1011.43 511.734 984.809 540.133 965.148C565.608 947.512 589.925 928.78 612.891 907.947C643.469 880.209 665.507 852.576 677.273 812.572C681.74 797.383 683.164 773.41 663.152 792.228C636.074 817.69 617.211 853.529 602.121 887.125C584.075 927.303 579.213 965.47 580.82 1009.66C581.699 1033.82 585.23 1056.84 603.916 1073.45C624.39 1091.65 649.995 1083.37 669.375 1067.22C691.582 1048.72 705.203 1020.28 714.609 993.39C728.985 952.291 754.111 857.058 813.455 900.767C816.35 902.899 823.272 911.181 820.395 909.024C807.807 899.583 789 867.5 746 912C741.632 924.5 751.732 912.403 758 899C741.544 918.676 738.215 927.269 729.565 950.788C718.415 981.1 728.638 1005.97 746.56 1032.64C761.522 1054.91 781.867 1070.6 808.428 1076.32C831.318 1081.25 849.71 1076.2 867.305 1061.12C886.744 1044.46 889.968 1011.78 894.829 988.364C899.078 967.889 901.211 946.574 907.992 926.735C914.15 908.718 929.061 878.725 953.705 883.654C970.665 887.046 982.469 914.58 987.212 928.53C994.763 950.739 969.328 979.455 945.927 975.2C918.943 970.294 918.607 935.383 916.13 915.366C913.899 897.346 908.197 877.64 899.855 861.516C888.83 840.208 868.797 841 848.398 834.949C833.234 830.452 821.883 820.541 826.498 802.52C835.664 766.73 878.568 751.032 910.026 741.968C929.027 736.493 935.403 723.153 946.047 706.187C958.753 685.933 970.343 671.45 952.509 651.858C925.266 621.93 882.503 638.493 852.706 615.718C820.763 591.303 852.93 565.339 855.338 536.737C856.062 528.139 851.327 519.634 844.688 514.479C834.652 506.687 806.058 495.128 793.709 503.948C770.419 520.584 833.221 564.736 854.86 554.209C882.426 540.798 881.864 511.76 865.63 488.391C846.553 460.933 823.697 439.234 809.146 408.214C796.759 381.806 797.816 360.861 804.479 333.182C808.658 315.827 813.419 300.037 822.31 284.478C830.799 269.622 840.816 247.869 856.774 239.482C878.636 227.993 902.113 229.873 913.976 254.561C926.635 280.905 921.465 309.578 930.25 336.533C933.838 347.541 970.142 444.133 985.896 423.532C998.164 407.489 1007.3 388.065 1016.41 370.16C1023.32 356.578 1022.41 354.404 1023.35 341.918C1024.9 321.355 1040.04 293.539 1052.55 278.015C1072.65 253.077 1096.7 290.873 1107.36 306.018C1119.51 323.285 1129.77 342.711 1135.12 363.219C1141.05 385.897 1141.37 409.745 1148.52 432.148C1158.22 462.495 1178.91 487.724 1190.17 517.351C1194.41 528.501 1196.9 535.889 1188.01 545.353C1176.48 557.643 1159.75 570.933 1142.3 572.159C1122.7 573.536 1105.04 557.189 1087.97 570.244C1059.55 591.985 1038.35 632.415 1039.63 668.731C1040.16 683.789 1046.99 710.776 1058.53 721.385C1067.27 729.413 1087.93 730.599 1099.22 730.599C1105.16 730.599 1146.94 718.713 1139.91 732.992C1129.43 754.251 1102.98 773.988 1086.42 790.553C1055.37 821.601 1022.85 850.942 1002.77 890.715C995.118 905.871 1001.01 915.091 1010.43 927.572C1013.41 931.521 1015.32 935.01 1019.04 931.162C1033.48 916.251 1047.36 900.727 1061.53 885.569C1063.4 883.567 1095.86 842.179 1104.73 843.446C1110.31 844.243 1071.96 937.094 1065.12 950.788C1053.75 973.512 1067.12 950.481 1071.7 943.369C1083.11 925.623 1094.91 907.79 1110.47 893.347C1122.27 882.399 1138.59 866.126 1155.7 864.627C1202.21 860.554 1148.5 927.829 1141.34 936.906C1125.64 956.834 1110.45 976.846 1097.79 998.894C1095.64 1002.63 1089.21 1012.91 1090.61 1017.44C1092.13 1022.39 1099.39 1011.57 1102.45 1007.39C1110.51 996.39 1117.41 984.537 1125.79 973.764C1138.67 957.183 1156.66 944.863 1174.13 933.556C1188.51 924.254 1204.91 918.553 1222 916.802C1233.75 915.599 1235.33 922.272 1237.32 932.12C1240.62 948.456 1217.73 968.298 1207.28 978.072C1183.38 1000.44 1155.8 1018.38 1131.65 1040.54C1111.81 1058.74 1094.55 1082.98 1091.8 1110.9C1091.13 1117.72 1092.68 1117.69 1101.02 1115.33C1148.17 1101.95 1197.28 1080.75 1239.47 1055.86C1275.4 1074.86 1294.15 1063.26 1304.29 1022.89C1307.19 1011.37 1296.88 956.959 1282.29 970.918C1271.89 980.87 1266.6 983.693 1258.74 995.809C1247.02 1013.89 1239.83 1031.51 1244.5 1052.89C1250.15 1078.78 1294.36 1109.32 1313.79 1089.89C1352.51 1051.18 1341.55 930.912 1343.34 878.509C1344.97 830.999 1334.65 783.277 1332.09 735.865C1330.35 703.534 1327.72 666.718 1340.47 636.301C1349.5 614.776 1360.63 594.062 1373.02 574.313C1381.85 560.237 1393.28 546.316 1395.52 529.318C1396.99 518.14 1398.31 503.313 1393.48 492.7C1386.18 476.633 1368.05 464.997 1355.67 453.089C1327.74 426.222 1299.35 392.576 1305.29 350.414C1308.57 327.136 1320.4 304.387 1328.98 282.802C1340.91 252.836 1351.9 222.278 1358.66 190.658C1360.27 183.151 1362.87 172.389 1359.62 164.331C1358.14 160.663 1353.13 159.172 1351.72 155.476C1348 145.704 1350.92 126.21 1351.72 119.097C1355.64 84.2034 1362.95 41.5739 1367.52 7.56616" stroke="#63FF44" stroke-width="14" stroke-linecap="round"/>
</svg>
